Coordinates
version=1
nRows=19
nColumns=36
inDegrees=yes

Units are S.I. units (second, meters, Newtons, ...)
If the header above contains a line with 'inDegrees', this indicates whether rotational values are in degrees (yes) or radians (no).

endheader
time	pelvis_tilt	pelvis_list	pelvis_rotation	pelvis_tx	pelvis_ty	pelvis_tz	hip_flexion_r	hip_adduction_r	hip_rotation_r	knee_angle_r	knee_angle_r_beta	ankle_angle_r	subtalar_angle_r	mtp_angle_r	hip_flexion_l	hip_adduction_l	hip_rotation_l	knee_angle_l	knee_angle_l_beta	ankle_angle_l	subtalar_angle_l	mtp_angle_l	lumbar_extension	lumbar_bending	lumbar_rotation	arm_flex_r	arm_add_r	arm_rot_r	elbow_flex_r	pro_sup_r	arm_flex_l	arm_add_l	arm_rot_l	elbow_flex_l	pro_sup_l
      1.40000000	     -0.23256461	      0.27677239	     16.16189881	     -0.15481258	      1.31727791	      0.34091318	     -3.00116325	     -2.66599650	     -5.72516634	      3.66589096	      0.06398187	     12.09633832	     -1.64878047	     -7.49999980	     -2.49743736	     -1.69388866	    -19.04550158	      6.78586326	      0.11843566	     11.97876262	      3.89251290	     -7.49999980	     -4.13481914	     -1.67935780	     -5.69608856	     10.12034858	    -12.93419721	     31.58826118	     25.80575860	     81.38380346	      4.13664210	    -19.00028702	     36.61772014	     23.30151802	     71.12705483
      1.41666670	     -0.20539383	      0.33026803	     16.15781506	     -0.15434948	      1.31182604	      0.34137369	     -3.07355856	     -2.67519865	     -5.69561537	      3.61375115	      0.06307186	     12.26031288	     -1.47241578	     -7.49999981	     -2.44508389	     -1.67793846	    -18.98740306	      7.05139955	      0.12307014	     12.11468891	      3.67253735	     -7.49999981	     -4.30287453	     -1.69838446	     -5.62437657	     10.22934634	    -12.96628853	     31.90334138	     25.99625134	     80.26190103	      4.21829048	    -19.27601699	     36.71736036	     23.88284166	     70.47471862
      1.43333330	     -0.22196466	      0.24524453	     16.15354176	     -0.13750789	      1.31248130	      0.34040971	     -3.29268694	     -2.53969843	     -5.60233013	      3.46103577	      0.06040647	     12.24756457	     -1.58043443	     -7.49999981	     -2.54501154	     -1.79101078	    -19.09072735	      7.08885940	      0.12372394	     12.03363673	      3.46917291	     -7.49999981	     -4.20764627	     -1.57043691	     -5.57444056	     10.05634418	    -12.90747473	     32.02770622	     25.93378068	     80.74010862	      4.00529580	    -19.41439884	     36.69176187	     24.28490563	     70.68611005
      1.45000000	     -0.26821565	      0.23315049	     16.22025310	     -0.14438869	      1.30969211	      0.34408959	     -3.38306574	     -2.46515926	     -5.55284282	      3.44517276	      0.06012961	     12.41000202	     -1.58857933	     -7.49999981	     -2.50790997	     -1.85190916	    -19.15181868	      7.27455211	      0.12696489	     12.01089655	      3.37739943	     -7.49999981	     -4.14708527	     -1.57590500	     -5.52573814	      9.95906047	    -12.85879285	     32.08028776	     25.97489277	     80.77125777	      4.02141040	    -19.62247345	     36.67884061	     24.34228170	     70.69296548
      1.46666670	     -0.32242244	      0.19431276	     16.27335394	     -0.13774848	      1.31043115	      0.34037730	     -3.56477042	     -2.37573048	     -5.45752918	      3.28351054	      0.05730807	     12.55363589	     -1.55669059	     -7.49999981	     -2.56302792	     -1.90898436	    -19.20744620	      7.37820141	      0.12877391	     11.99040023	      3.27104493	     -7.49999981	     -4.04035177	     -1.50681599	     -5.44365540	      9.80629045	    -12.90911157	     32.13577235	     25.97618986	     80.82353977	      3.86620507	    -19.73311385	     36.71742463	     24.47375067	     70.71452878
      1.48333330	     -0.49018449	      0.16363864	     16.41590781	     -0.14474998	      1.30732717	      0.34404537	     -3.47782526	     -2.33018783	     -5.48621570	      3.32528880	      0.05803724	     12.71629935	     -1.54287072	     -7.49999981	     -2.28505190	     -1.97374750	    -19.09116760	      7.75622718	      0.13537170	     11.99519643	      2.84119010	     -7.49999981	     -4.01398289	     -1.48309114	     -5.53291094	      9.75293016	    -13.14315711	     32.68043025	     26.61498202	     81.31835926	      3.46772197	    -20.64874470	     37.27306816	     26.43853916	     70.91534621
      1.50000000	     -0.54345838	      0.16246633	     16.47610158	     -0.14611941	      1.30461520	      0.34418021	     -3.53012798	     -2.29006146	     -5.41576117	      3.34971459	      0.05846355	     12.80635097	     -1.63470058	     -7.49999982	     -2.18965895	     -2.03506819	    -19.29625226	      8.02397434	      0.14004477	     12.20637461	      2.93611204	     -7.49999982	     -4.13681492	     -1.45903593	     -5.69787175	      9.98727294	    -13.08908281	     33.22772496	     26.55125276	     80.50122686	      3.22168187	    -21.22836433	     37.54924690	     27.40132028	     70.14545294
      1.51666670	     -0.69149476	      0.21412259	     16.65155694	     -0.15393303	      1.30121613	      0.34102659	     -3.35033598	     -2.35910026	     -5.45389638	      3.47563347	      0.06066125	     12.97721216	     -1.72811858	     -7.49999982	     -1.86138654	     -1.98314836	    -19.23491024	      8.41757214	      0.14691435	     12.44509302	      2.74926252	     -7.49999982	     -4.36211199	     -1.50124360	     -5.78547721	     10.08439896	    -13.10338444	     33.29931438	     26.60757662	     80.54951616	      3.49716655	    -21.53410639	     37.50398453	     27.57326140	     70.14035931
      1.53333330	     -0.80704514	      0.21895393	     16.79718555	     -0.15482701	      1.30143527	      0.34085169	     -3.21666495	     -2.39318256	     -5.55462840	      3.53190063	      0.06164329	     13.08957720	     -1.82628096	     -7.49999983	     -1.58089025	     -1.96833296	    -19.15554951	      8.70216051	      0.15188135	     12.65772571	      2.48635454	     -7.49999983	     -4.82078579	     -1.43104089	     -5.82758753	      9.90893809	    -13.47008235	     33.32958224	     27.79080810	     78.78802089	      3.24011170	    -22.35689918	     37.39347440	     29.56803678	     69.13047606
      1.55000000	     -1.06277446	      0.18826805	     16.88279371	     -0.15328043	      1.29898372	      0.34090086	     -2.89934849	     -2.44948577	     -5.55120403	      3.65197798	      0.06373904	     13.22007843	     -2.04729931	     -7.49999983	     -1.12773012	     -1.96103366	    -19.21952430	      9.01946110	      0.15741929	     12.76983494	      2.27841013	     -7.49999983	     -5.25710685	     -1.38974248	     -5.83668607	      9.84385039	    -13.74978132	     33.51890703	     28.59051999	     77.14590281	      2.93652138	    -23.28786350	     37.32143442	     31.47865713	     68.21916524
      1.56666670	     -1.45091483	      0.08983797	     17.01788179	     -0.15321848	      1.29931159	      0.34054937	     -2.29647730	     -2.50523455	     -5.76148746	      3.98037874	      0.06947071	     13.35425388	     -2.03910305	     -7.49999984	     -0.48510812	     -1.98089737	    -19.22707273	      9.33415161	      0.16291168	     12.77856946	      2.14195245	     -7.49999984	     -5.54486034	     -1.35584539	     -5.90201713	     10.03341638	    -13.87251112	     33.84248172	     28.59995315	     76.80098702	      2.59078251	    -24.01905768	     37.20046277	     32.65084191	     68.01563382
      1.58333330	     -1.97103463	     -0.08973380	     17.10815920	     -0.15087642	      1.30244551	      0.34013260	     -1.43696869	     -2.55607200	     -5.96678895	      4.51243292	      0.07875681	     13.38980820	     -2.30120638	     -7.49999985	      0.33302131	     -2.07471563	    -19.32375526	      9.74383689	      0.17006204	     12.85885821	      2.14587345	     -7.49999985	     -5.77349038	     -1.15754380	     -7.74986581	     11.99480551	    -13.32960231	     36.86290339	     26.84378222	     82.47373516	     -0.52008915	    -24.92629441	     32.35587401	     35.49141802	     70.21295995
      1.60000000	     -2.44994701	     -0.20922629	     17.24689462	     -0.15087658	      1.30296780	      0.33968295	     -0.62857654	     -2.66411783	     -6.11977178	      4.98844748	      0.08706483	     13.43058172	     -2.53167451	     -7.49999985	      1.06731844	     -2.11696054	    -19.34380553	     10.10784588	      0.17641519	     12.92396576	      2.23913196	     -7.49999985	     -6.30192279	     -1.17309383	     -7.70155001	     11.94259889	    -13.53759584	     36.48305028	     27.16843024	     81.24989303	     -1.15753282	    -25.66569224	     31.63937454	     36.91943958	     70.28098414
      1.61666670	     -2.79489739	     -0.25116171	     17.43689947	     -0.14895978	      1.29723674	      0.33934608	     -0.04951453	     -2.82055582	     -6.59999890	      5.44243698	      0.09498844	     13.72361807	     -2.17630072	     -7.49999985	      1.68855035	     -2.12569320	    -19.25819222	     10.54316344	      0.18401292	     12.81676329	      1.94177064	     -7.49999985	     -7.24806878	     -1.27763252	     -7.37490763	     11.03658333	    -14.41659850	     35.74761445	     29.56251940	     79.06927218	     -1.81996473	    -26.59797283	     30.85018771	     39.06602962	     69.26048299
      1.63333330	     -3.32321201	     -0.40479979	     17.53119536	     -0.14889334	      1.29723218	      0.33905124	      0.83376307	     -2.91649404	     -6.54329892	      6.01426277	      0.10496869	     13.82846112	     -2.59062644	     -7.49999985	      2.52381846	     -2.21515405	    -19.16681540	     10.96743713	      0.19141789	     12.73971345	      1.73575902	     -7.49999985	     -7.73108799	     -1.32595706	     -7.35680705	     10.91581912	    -14.56723595	     35.49967411	     29.66435543	     78.13882296	     -2.39371463	    -27.23295987	     30.53288698	     39.78809950	     68.85282059
      1.65000000	     -4.09817386	     -0.72332905	     17.60618022	     -0.14728046	      1.30080099	      0.33865886	      2.21135442	     -2.97366556	     -6.81313213	      6.89288021	      0.12030345	     13.90556579	     -2.60110895	     -7.49999986	      3.77961265	     -2.43203517	    -19.03622147	     11.61428769	      0.20270756	     12.74166518	      1.57585695	     -7.49999986	     -7.94605585	     -1.29290325	     -7.99037966	     11.58703157	    -14.15855132	     35.64010509	     27.79457889	     79.58990008	     -3.05201277	    -27.92397149	     30.31383086	     40.23474757	     70.05901383
      1.66666670	     -4.75850496	     -0.93472477	     17.66198048	     -0.14656032	      1.29744867	      0.33812635	      3.60807198	     -3.14070107	     -7.11354221	      8.04914168	      0.14048402	     14.11734861	     -2.63250708	     -7.49999986	      5.07440691	     -2.62486408	    -18.91606040	     12.63100326	      0.22045259	     12.94313959	      1.28589333	     -7.49999986	     -8.68099293	     -1.34619452	     -8.61538002	     11.77780158	    -13.98373482	     35.16024125	     27.18949009	     80.21871669	     -3.69847785	    -28.47753653	     29.40354016	     40.91205450	     70.93621122
      1.68333330	     -5.64075517	     -1.23811873	     17.88677343	     -0.15385517	      1.29740004	      0.33442212	      5.51263817	     -3.37355598	     -7.44704000	      9.56823967	      0.16699729	     14.29872756	     -2.74845267	     -7.49999986	      7.10282043	     -2.89953384	    -18.46455216	     14.26392360	      0.24895243	     13.28624387	      0.59276122	     -7.49999986	     -9.71264455	     -1.31702313	     -8.99598789	     11.85454662	    -14.40877478	     34.60306086	     27.82916495	     80.51585650	     -3.70526810	    -29.02858347	     29.08976775	     41.76956082	     71.33014087
      1.70000000	     -6.52471789	     -1.54945365	     18.01375960	     -0.15305401	      1.29760954	      0.33363473	      7.54669310	     -3.69409471	     -7.93976923	     11.32565181	      0.19766991	     14.54431806	     -2.58317485	     -7.49999986	      9.14667012	     -3.15300609	    -17.85528418	     15.89796778	      0.27747188	     13.56541185	     -0.32011056	     -7.49999986	    -11.10981596	     -1.27896460	     -9.20623225	     11.38186385	    -14.69381593	     30.90799128	     29.28398641	     81.44191331	     -3.92997639	    -29.37012703	     27.38816162	     43.30876985	     73.15144208
